PathFileType	4	(X/Y/Z)	/Users/itak/Documents/Research/Walk-IL/dataset/trc/00446_00167.trc
DataRate	CameraRate	NumFrames	NumMarkers	Units	OrigDataRate	OrigDataStartFrame	OrigNumFrames
100.000000	100.000000	4	53	mm	100.000000	119	477
Frame#	Time	RPSI			LPSI			L3			STRN			T10			C7			CLAV			RBAK			LBAK			LSHO			LUPA			LAEL			LAOL			LWTS			LWPS			LFRA			LIFD			LHPS			LHTS			RSHO			RUPA			RAEL			RAOL			RWTS			RWPS			RFRA			RIFD			RHTS			RHPS			RBHD			LFHD			RFHD			LBHD			LHIP			RHIP			RASI			LASI			LKNE			LTHI			LANK			LTIP			LTOE			LMT1			LMT5			LHEE			RKNE			RTHI			RANK			RTIP			RTOE			RMT1			RMT5			RHEE			
		X1	Y1	Z1	X2	Y2	Z2	X3	Y3	Z3	X4	Y4	Z4	X5	Y5	Z5	X6	Y6	Z6	X7	Y7	Z7	X8	Y8	Z8	X9	Y9	Z9	X10	Y10	Z10	X11	Y11	Z11	X12	Y12	Z12	X13	Y13	Z13	X14	Y14	Z14	X15	Y15	Z15	X16	Y16	Z16	X17	Y17	Z17	X18	Y18	Z18	X19	Y19	Z19	X20	Y20	Z20	X21	Y21	Z21	X22	Y22	Z22	X23	Y23	Z23	X24	Y24	Z24	X25	Y25	Z25	X26	Y26	Z26	X27	Y27	Z27	X28	Y28	Z28	X29	Y29	Z29	X30	Y30	Z30	X31	Y31	Z31	X32	Y32	Z32	X33	Y33	Z33	X34	Y34	Z34	X35	Y35	Z35	X36	Y36	Z36	X37	Y37	Z37	X38	Y38	Z38	X39	Y39	Z39	X40	Y40	Z40	X41	Y41	Z41	X42	Y42	Z42	X43	Y43	Z43	X44	Y44	Z44	X45	Y45	Z45	X46	Y46	Z46	X47	Y47	Z47	X48	Y48	Z48	X49	Y49	Z49	X50	Y50	Z50	X51	Y51	Z51	X52	Y52	Z52	X53	Y53	Z53	

120	1.19	-1617.85595703125	970.500732421875	-590.5758056640625	-1544.526733398438	970.1920776367188	-711.099853515625	-1575.721435546875	1064.115600585938	-628.5701904296875	-1323.838134765625	1254.44775390625	-512.9696044921875	-1586.577392578125	1189.296875	-638.7642211914062	-1523.903076171875	1456.213745117188	-594.0310668945312	-1351.638305664062	1369.316650390625	-532.6544189453125	-1625.44189453125	1339.89501953125	-536.9915771484375	-1514.510375976562	1408.08984375	-697.7924194335938	-1387.498168945312	1429.1689453125	-731.1920776367188	-1356.59033203125	1309.326171875	-824.9044799804688	-1320.52685546875	1093.579467773438	-843.2858276367188	-1419.565185546875	1077.961303710938	-816.7146606445312	-1262.558837890625	895.2991333007812	-766.010986328125	-1280.4228515625	876.6803588867188	-836.2403564453125	-1295.179565429688	1006.582214355469	-842.106689453125	-1255.709350585938	725.5553588867188	-760.486083984375	-1273.142700195312	795.2559814453125	-829.4478759765625	-1242.9697265625	805.7547607421875	-764.6221313476562	-1529.014526367188	1425.638671875	-418.0895690917969	-1577.314819335938	1364.09326171875	-356.9132690429688	-1598.49560546875	1075.826782226562	-307.3968811035156	-1630.725463867188	1059.234252929688	-364.8458557128906	-1481.875854492188	878.4140014648438	-307.5860290527344	-1564.497924804688	859.095703125	-285.6709899902344	-1597.225708007812	1017.391906738281	-297.7326354980469	-1477.5810546875	719.6661376953125	-299.4078369140625	-1469.423461914062	778.6746826171875	-291.1643981933594	-1543.993774414062	772.9922485351562	-281.3903503417969	-1487.234008789062	1647.190307617188	-483.7406311035156	-1297.49365234375	1667.418701171875	-567.5887451171875	-1354.84716796875	1666.635864257812	-449.0984497070312	-1425.387084960938	1652.376098632812	-650.9415893554688	-1368.517578125	865.3173217773438	-742.0858764648438	-1592.452270507812	865.39892578125	-416.2607727050781	-1467.850463867188	902.7796630859375	-411.7865600585938	-1324.420288085938	901.7577514648438	-624.5654907226562	-1369.119140625	441.2795715332031	-698.8890991210938	-1337.97509765625	594.7415771484375	-707.03173828125	-1476.66064453125	35.32950592041016	-763.0067138671875	-1388.626708984375	288.3318481445312	-723.8161010742188	-1317.646118164062	46.62422180175781	-586.1751708984375	-1394.632568359375	51.27716827392578	-598.8468627929688	-1339.758911132812	47.61807250976562	-698.3729248046875	-1549.906494140625	35.25566101074219	-743.103759765625	-1559.15087890625	470.8622741699219	-427.6807556152344	-1564.868530273438	730.9168701171875	-383.4265441894531	-1623.633056640625	40.37187194824219	-464.7157897949219	-1578.208129882812	324.8215026855469	-423.1843566894531	-1413.072998046875	49.50527954101562	-402.4002075195312	-1451.5517578125	56.11344146728516	-463.9575805664062	-1517.682983398438	49.13016128540039	-378.3500671386719	-1657.688232421875	32.36833953857422	-540.28564453125	
121	1.2	-1617.02734375	970.5184326171875	-590.541748046875	-1543.641967773438	970.232666015625	-711.0279541015625	-1574.8505859375	1064.107055664062	-628.4894409179688	-1323.044921875	1254.317260742188	-512.692626953125	-1585.639038085938	1189.255249023438	-638.6189575195312	-1522.962036132812	1456.202758789062	-593.828125	-1350.767333984375	1369.19189453125	-532.4006958007812	-1624.544921875	1339.934448242188	-536.8973388671875	-1513.535034179688	1408.116455078125	-697.5845947265625	-1386.445678710938	1429.048828125	-730.9367065429688	-1355.6806640625	1309.208984375	-824.6519165039062	-1319.9443359375	1093.359741210938	-843.0341186523438	-1419.033203125	1077.995727539062	-816.5181274414062	-1262.196533203125	895.0107421875	-765.7463989257812	-1280.213989257812	876.40185546875	-836.0819702148438	-1294.6787109375	1006.388671875	-841.8899536132812	-1255.170776367188	725.343505859375	-760.0401611328125	-1273.255493164062	795.0119018554688	-829.3534545898438	-1242.712524414062	805.4427490234375	-764.3826904296875	-1528.1875	1425.621337890625	-417.8992004394531	-1576.561889648438	1364.129516601562	-356.7574768066406	-1597.808227539062	1075.786987304688	-307.3233642578125	-1630.013916015625	1059.192138671875	-364.7972717285156	-1480.700317382812	878.6203002929688	-307.2092895507812	-1563.364379882812	859.07421875	-285.7235107421875	-1596.449096679688	1017.353210449219	-297.6462707519531	-1476.125854492188	719.7782592773438	-299.4487609863281	-1468.104370117188	778.84814453125	-290.9932250976562	-1542.720825195312	772.9895629882812	-281.5739135742188	-1486.321899414062	1647.117065429688	-483.5747985839844	-1296.614624023438	1667.396728515625	-567.3228149414062	-1353.971313476562	1666.649169921875	-448.8229675292969	-1424.49169921875	1652.26171875	-650.7235107421875	-1367.765014648438	865.2540893554688	-741.9789428710938	-1591.941284179688	865.4703369140625	-416.278076171875	-1467.3203125	902.7236938476562	-411.6774291992188	-1323.678588867188	901.5782470703125	-624.402099609375	-1368.709228515625	441.1988830566406	-698.6721801757812	-1337.496948242188	594.5980224609375	-706.8451538085938	-1476.697998046875	35.25922393798828	-763.0587768554688	-1388.424926757812	288.2413940429688	-723.6041259765625	-1317.693725585938	46.85671997070312	-586.2017211914062	-1394.71142578125	51.42157363891602	-598.8732299804688	-1339.933715820312	47.79729461669922	-698.3628540039062	-1549.960205078125	35.08240509033203	-743.1119384765625	-1558.895751953125	470.8778076171875	-427.6142272949219	-1564.456665039062	730.91650390625	-383.3780212402344	-1623.754760742188	40.21933746337891	-464.6798706054688	-1578.123657226562	324.8238220214844	-423.15185546875	-1413.1875	49.62186431884766	-402.3196716308594	-1451.632202148438	56.26999282836914	-463.9451293945312	-1517.749877929688	49.12650299072266	-378.3287658691406	-1657.732788085938	32.32571792602539	-540.2846069335938	
122	1.21	-1616.134765625	970.5068969726562	-590.4992065429688	-1542.717041015625	970.2699584960938	-710.9448852539062	-1573.944580078125	1064.100708007812	-628.3834228515625	-1322.1904296875	1254.172241210938	-512.40185546875	-1584.6513671875	1189.2119140625	-638.4908447265625	-1521.947875976562	1456.169799804688	-593.6043701171875	-1349.836791992188	1369.048583984375	-532.1322021484375	-1623.607421875	1339.963989257812	-536.7954711914062	-1512.499633789062	1408.142700195312	-697.3643188476562	-1385.338623046875	1428.928833007812	-730.6563720703125	-1354.721435546875	1309.092407226562	-824.3873291015625	-1319.289306640625	1093.109252929688	-842.782958984375	-1418.497802734375	1078.067016601562	-816.3367309570312	-1261.789428710938	894.6979370117188	-765.4758911132812	-1279.954956054688	876.1281127929688	-835.9199829101562	-1294.149291992188	1006.193115234375	-841.6763305664062	-1254.184936523438	725.263916015625	-759.4716186523438	-1273.258422851562	794.7527465820312	-829.2114868164062	-1242.43359375	805.1168823242188	-764.1431274414062	-1527.30908203125	1425.586791992188	-417.7010498046875	-1575.752319335938	1364.146118164062	-356.5888977050781	-1597.0263671875	1075.728637695312	-307.2162780761719	-1629.227661132812	1059.111938476562	-364.721435546875	-1479.406005859375	878.8311767578125	-306.8788146972656	-1562.097290039062	859.0514526367188	-285.7254333496094	-1595.567016601562	1017.295593261719	-297.5276794433594	-1474.479248046875	719.8926391601562	-299.5414733886719	-1466.626708984375	779.0325317382812	-290.8526916503906	-1541.293212890625	772.9969482421875	-281.6798706054688	-1485.325317382812	1647.047119140625	-483.3897705078125	-1295.650756835938	1667.349365234375	-567.0264282226562	-1353.019653320312	1666.628540039062	-448.5316467285156	-1423.496704101562	1652.136352539062	-650.4719848632812	-1366.97509765625	865.1763916015625	-741.8809814453125	-1591.365112304688	865.5272827148438	-416.287353515625	-1466.783447265625	902.6453247070312	-411.5573120117188	-1322.8564453125	901.4075927734375	-624.213134765625	-1368.249877929688	441.0972290039062	-698.4169921875	-1336.948974609375	594.4625244140625	-706.6370849609375	-1476.723022460938	35.19276809692383	-763.0933227539062	-1388.230834960938	288.1378479003906	-723.4020385742188	-1317.73974609375	47.08938598632812	-586.2216186523438	-1394.797485351562	51.5685920715332	-598.8876342773438	-1340.11279296875	47.97570037841797	-698.3355712890625	-1549.998413085938	34.93422698974609	-743.1060791015625	-1558.588745117188	470.8902587890625	-427.5223083496094	-1563.9833984375	730.9071655273438	-383.3138122558594	-1623.885498046875	40.07334518432617	-464.6487121582031	-1578.00390625	324.8165588378906	-423.1136474609375	-1413.305786132812	49.7522087097168	-402.2260437011719	-1451.710327148438	56.42727279663086	-463.9297485351562	-1517.815185546875	49.12215805053711	-378.3140563964844	-1657.801025390625	32.28927612304688	-540.2886962890625	
123	1.22	-1615.191650390625	970.47998046875	-590.4545288085938	-1541.752807617188	970.2965087890625	-710.85009765625	-1573.0126953125	1064.108276367188	-628.2544555664062	-1321.274169921875	1254.008056640625	-512.0978393554688	-1583.617065429688	1189.171997070312	-638.3751831054688	-1520.859130859375	1456.114135742188	-593.3637084960938	-1348.846069335938	1368.886352539062	-531.8514404296875	-1622.634643554688	1339.982666015625	-536.680908203125	-1511.394897460938	1408.156982421875	-697.1290283203125	-1384.177490234375	1428.80908203125	-730.3524780273438	-1353.702758789062	1308.966430664062	-824.1079711914062	-1318.564086914062	1092.841552734375	-842.5352783203125	-1417.927368164062	1078.139404296875	-816.1572265625	-1261.371704101562	894.3565063476562	-765.2117919921875	-1279.641479492188	875.8606567382812	-835.7510986328125	-1293.585083007812	1005.988220214844	-841.4599609375	-1252.791015625	725.2952880859375	-758.8019409179688	-1273.141357421875	794.4744262695312	-829.0225830078125	-1242.130493164062	804.77001953125	-763.9107666015625	-1526.376708984375	1425.529541015625	-417.4948120117188	-1574.884765625	1364.135986328125	-356.409423828125	-1596.146728515625	1075.646118164062	-307.0755615234375	-1628.346313476562	1058.98095703125	-364.6100158691406	-1477.9892578125	879.0380859375	-306.6055603027344	-1560.69091796875	859.02392578125	-285.6718139648438	-1594.572387695312	1017.215454101562	-297.3789978027344	-1472.641357421875	720.0091552734375	-299.6768188476562	-1464.990356445312	779.2232666015625	-290.7424011230469	-1539.70751953125	773.0108642578125	-281.6978454589844	-1484.251220703125	1646.980712890625	-483.182861328125	-1294.596557617188	1667.270263671875	-566.7053833007812	-1351.9892578125	1666.567749023438	-448.2233276367188	-1422.390869140625	1651.998291015625	-650.1861572265625	-1366.132690429688	865.0765380859375	-741.7802734375	-1590.716064453125	865.5634765625	-416.285888671875	-1466.204833984375	902.5464477539062	-411.4220581054688	-1321.95849609375	901.2456665039062	-623.9981079101562	-1367.748657226562	440.9720458984375	-698.128173828125	-1336.328002929688	594.3331298828125	-706.405517578125	-1476.740356445312	35.13146209716797	-763.1122436523438	-1388.025268554688	288.029541015625	-723.2028198242188	-1317.78369140625	47.32141876220703	-586.2337036132812	-1394.889892578125	51.7120361328125	-598.8876342773438	-1340.293334960938	48.15116882324219	-698.2915649414062	-1550.027099609375	34.81331634521484	-743.0964965820312	-1558.232177734375	470.8989562988281	-427.4079895019531	-1563.443969726562	730.8856811523438	-383.2408447265625	-1624.01708984375	39.94655990600586	-464.6202392578125	-1577.849853515625	324.8001098632812	-423.0723266601562	-1413.423583984375	49.89143753051758	-402.1248779296875	-1451.785766601562	56.58389282226562	-463.9083251953125	-1517.876708984375	49.1162109375	-378.3090209960938	-1657.8916015625	32.25666427612305	-540.2940673828125	
